<svg data-v-423bf9ae="" xmlns="http://www.w3.org/2000/svg" viewBox="0 0 627 90" class="iconLeft"><!----><!----><!----><g data-v-423bf9ae="" id="ac3f26ab-da42-4e70-ab2e-d1abf707a0ac" fill="#2A2F1F" transform="matrix(5.633803018697211,0,0,5.633803018697211,112.91675843006425,-7.704226870531521)"><path d="M8.01 7.66L8.01 7.66L8.01 7.66Q8.01 8.28 7.94 8.76L7.94 8.76L7.94 8.76Q7.88 9.25 7.76 9.59L7.76 9.59L7.76 9.59Q7.65 9.94 7.45 10.19L7.45 10.19L7.45 10.19Q7.26 10.43 7.04 10.58L7.04 10.58L7.04 10.58Q6.83 10.73 6.52 10.82L6.52 10.82L6.52 10.82Q6.22 10.90 5.92 10.93L5.92 10.93L5.92 10.93Q5.63 10.96 5.23 10.96L5.23 10.96L2.52 10.96L2.52 14.52L1.13 14.52L1.13 4.33L4.83 4.33L4.83 4.33Q5.46 4.33 5.90 4.39L5.90 4.39L5.90 4.39Q6.34 4.44 6.72 4.57L6.72 4.57L6.72 4.57Q7.10 4.71 7.32 4.94L7.32 4.94L7.32 4.94Q7.55 5.17 7.71 5.55L7.71 5.55L7.71 5.55Q7.88 5.93 7.94 6.44L7.94 6.44L7.94 6.44Q8.00 6.95 8.01 7.66ZM6.63 7.58L6.63 7.58L6.63 7.58Q6.62 7.09 6.60 6.78L6.60 6.78L6.60 6.78Q6.58 6.47 6.52 6.20L6.52 6.20L6.52 6.20Q6.47 5.93 6.37 5.78L6.37 5.78L6.37 5.78Q6.28 5.64 6.12 5.53L6.12 5.53L6.12 5.53Q5.96 5.43 5.75 5.39L5.75 5.39L5.75 5.39Q5.53 5.36 5.21 5.36L5.21 5.36L2.52 5.36L2.52 9.93L4.93 9.93L4.93 9.93Q5.46 9.93 5.80 9.84L5.80 9.84L5.80 9.84Q6.13 9.75 6.32 9.54L6.32 9.54L6.32 9.54Q6.51 9.33 6.57 9.05L6.57 9.05L6.57 9.05Q6.64 8.77 6.64 8.33L6.64 8.33L6.64 8.33Q6.64 8.22 6.63 7.97L6.63 7.97L6.63 7.97Q6.63 7.72 6.63 7.58ZM11.11 7.02L11.11 14.52L9.76 14.52L9.76 7.02L11.11 7.02ZM9.76 4.12L11.11 4.12L11.11 5.30L9.76 5.30L9.76 4.12ZM18.96 9.18L18.96 9.18L17.85 9.37L17.71 8.42L17.71 8.42Q17.65 8.09 17.58 8.00L17.58 8.00L17.58 8.00Q17.40 7.79 16.59 7.77L16.59 7.77L16.59 7.77Q16.40 7.76 16.17 7.76L16.17 7.76L16.17 7.76Q15.24 7.76 14.95 7.86L14.95 7.86L14.95 7.86Q14.64 7.92 14.49 8.48L14.49 8.48L14.49 8.48Q14.35 9.05 14.35 9.87L14.35 9.87L14.36 11.05L14.36 11.05Q14.36 11.30 14.36 11.73L14.36 11.73L14.36 11.73Q14.36 12.29 14.36 12.52L14.36 12.52L14.36 12.52Q14.36 12.75 14.42 13.04L14.42 13.04L14.42 13.04Q14.48 13.33 14.56 13.40L14.56 13.40L14.56 13.40Q14.64 13.47 14.85 13.57L14.85 13.57L14.85 13.57Q15.07 13.67 15.32 13.67L15.32 13.67L15.32 13.67Q15.57 13.68 16.04 13.68L16.04 13.68L16.04 13.68Q16.41 13.68 16.68 13.65L16.68 13.65L16.68 13.65Q16.95 13.62 17.14 13.59L17.14 13.59L17.14 13.59Q17.33 13.55 17.45 13.46L17.45 13.46L17.45 13.46Q17.57 13.36 17.63 13.29L17.63 13.29L17.63 13.29Q17.70 13.21 17.73 13.05L17.73 13.05L17.73 13.05Q17.77 12.89 17.78 12.78L17.78 12.78L17.78 12.78Q17.79 12.66 17.80 12.42L17.80 12.42L17.80 12.42Q17.81 12.19 17.83 12.02L17.83 12.02L18.96 12.22L18.96 12.22Q18.92 12.75 18.86 13.07L18.86 13.07L18.86 13.07Q18.81 13.39 18.69 13.69L18.69 13.69L18.69 13.69Q18.57 13.99 18.39 14.15L18.39 14.15L18.39 14.15Q18.21 14.30 17.89 14.42L17.89 14.42L17.89 14.42Q17.58 14.55 17.15 14.58L17.15 14.58L17.15 14.58Q16.73 14.62 16.11 14.62L16.11 14.62L16.11 14.62Q15.65 14.62 15.30 14.59L15.30 14.59L15.30 14.59Q14.94 14.57 14.64 14.48L14.64 14.48L14.64 14.48Q14.35 14.40 14.13 14.32L14.13 14.32L14.13 14.32Q13.91 14.24 13.74 14.04L13.74 14.04L13.74 14.04Q13.58 13.84 13.46 13.70L13.46 13.70L13.46 13.70Q13.35 13.56 13.28 13.23L13.28 13.23L13.28 13.23Q13.20 12.91 13.16 12.69L13.16 12.69L13.16 12.69Q13.12 12.46 13.10 12.00L13.10 12.00L13.10 12.00Q13.08 11.54 13.07 11.22L13.07 11.22L13.07 11.22Q13.07 10.90 13.07 10.29L13.07 10.29L13.07 10.29Q13.07 9.74 13.09 9.34L13.09 9.34L13.09 9.34Q13.11 8.94 13.17 8.58L13.17 8.58L13.17 8.58Q13.23 8.21 13.33 7.97L13.33 7.97L13.33 7.97Q13.43 7.72 13.60 7.51L13.60 7.51L13.60 7.51Q13.77 7.30 13.98 7.18L13.98 7.18L13.98 7.18Q14.20 7.05 14.52 6.97L14.52 6.97L14.52 6.97Q14.83 6.88 15.21 6.84L15.21 6.84L15.21 6.84Q15.59 6.81 16.10 6.81L16.10 6.81L16.10 6.81Q16.75 6.81 17.19 6.87L17.19 6.87L17.19 6.87Q17.63 6.94 17.97 7.09L17.97 7.09L17.97 7.09Q18.31 7.24 18.51 7.52L18.51 7.52L18.51 7.52Q18.71 7.79 18.82 8.19L18.82 8.19L18.82 8.19Q18.93 8.59 18.96 9.18ZM26.31 9.18L26.31 9.18L25.20 9.37L25.06 8.42L25.06 8.42Q25.01 8.09 24.93 8.00L24.93 8.00L24.93 8.00Q24.75 7.79 23.95 7.77L23.95 7.77L23.95 7.77Q23.75 7.76 23.52 7.76L23.52 7.76L23.52 7.76Q22.59 7.76 22.31 7.86L22.31 7.86L22.31 7.86Q21.99 7.92 21.85 8.48L21.85 8.48L21.85 8.48Q21.70 9.05 21.70 9.87L21.70 9.87L21.71 11.05L21.71 11.05Q21.71 11.30 21.71 11.73L21.71 11.73L21.71 11.73Q21.71 12.29 21.71 12.52L21.71 12.52L21.71 12.52Q21.71 12.75 21.77 13.04L21.77 13.04L21.77 13.04Q21.83 13.33 21.91 13.40L21.91 13.40L21.91 13.40Q21.99 13.47 22.21 13.57L22.21 13.57L22.21 13.57Q22.43 13.67 22.68 13.67L22.68 13.67L22.68 13.67Q22.93 13.68 23.40 13.68L23.40 13.68L23.40 13.68Q23.77 13.68 24.04 13.65L24.04 13.65L24.04 13.65Q24.31 13.62 24.50 13.59L24.50 13.59L24.50 13.59Q24.68 13.55 24.80 13.46L24.80 13.46L24.80 13.46Q24.92 13.36 24.99 13.29L24.99 13.29L24.99 13.29Q25.05 13.21 25.09 13.05L25.09 13.05L25.09 13.05Q25.12 12.89 25.13 12.78L25.13 12.78L25.13 12.78Q25.14 12.66 25.16 12.42L25.16 12.42L25.16 12.42Q25.17 12.19 25.19 12.02L25.19 12.02L26.31 12.22L26.31 12.22Q26.27 12.75 26.22 13.07L26.22 13.07L26.22 13.07Q26.17 13.39 26.05 13.69L26.05 13.69L26.05 13.69Q25.93 13.99 25.75 14.15L25.75 14.15L25.75 14.15Q25.57 14.30 25.25 14.42L25.25 14.42L25.25 14.42Q24.93 14.55 24.51 14.58L24.51 14.58L24.51 14.58Q24.09 14.62 23.46 14.62L23.46 14.62L23.46 14.62Q23.01 14.62 22.65 14.59L22.65 14.59L22.65 14.59Q22.29 14.57 22.00 14.48L22.00 14.48L22.00 14.48Q21.70 14.40 21.49 14.32L21.49 14.32L21.49 14.32Q21.27 14.24 21.10 14.04L21.10 14.04L21.10 14.04Q20.93 13.84 20.82 13.70L20.82 13.70L20.82 13.70Q20.71 13.56 20.63 13.23L20.63 13.23L20.63 13.23Q20.56 12.91 20.51 12.69L20.51 12.69L20.51 12.69Q20.47 12.46 20.45 12.00L20.45 12.00L20.45 12.00Q20.43 11.54 20.43 11.22L20.43 11.22L20.43 11.22Q20.43 10.90 20.43 10.29L20.43 10.29L20.43 10.29Q20.43 9.74 20.45 9.34L20.45 9.34L20.45 9.34Q20.47 8.94 20.53 8.58L20.53 8.58L20.53 8.58Q20.59 8.21 20.69 7.97L20.69 7.97L20.69 7.97Q20.79 7.72 20.96 7.51L20.96 7.51L20.96 7.51Q21.12 7.30 21.34 7.18L21.34 7.18L21.34 7.18Q21.55 7.05 21.87 6.97L21.87 6.97L21.87 6.97Q22.19 6.88 22.57 6.84L22.57 6.84L22.57 6.84Q22.95 6.81 23.45 6.81L23.45 6.81L23.45 6.81Q24.10 6.81 24.54 6.87L24.54 6.87L24.54 6.87Q24.99 6.94 25.33 7.09L25.33 7.09L25.33 7.09Q25.67 7.24 25.87 7.52L25.87 7.52L25.87 7.52Q26.07 7.79 26.17 8.19L26.17 8.19L26.17 8.19Q26.28 8.59 26.31 9.18ZM30.95 13.68L30.95 13.68L30.95 13.68Q31.92 13.66 32.30 13.54L32.30 13.54L32.30 13.54Q32.68 13.41 32.68 13.05L32.68 13.05L32.68 13.05Q32.75 12.07 32.75 10.79L32.75 10.79L32.75 10.79Q32.75 10.36 32.72 9.57L32.72 9.57L32.72 9.57Q32.68 8.78 32.68 8.40L32.68 8.40L32.68 8.40Q32.68 8.29 32.65 8.19L32.65 8.19L32.65 8.19Q32.61 8.09 32.52 8.03L32.52 8.03L32.52 8.03Q32.44 7.96 32.35 7.92L32.35 7.92L32.35 7.92Q32.27 7.87 32.11 7.84L32.11 7.84L32.11 7.84Q31.96 7.81 31.85 7.79L31.85 7.79L31.85 7.79Q31.75 7.77 31.55 7.77L31.55 7.77L31.55 7.77Q31.36 7.76 31.25 7.76L31.25 7.76L31.25 7.76Q31.14 7.76 30.94 7.76L30.94 7.76L30.94 7.76Q30.73 7.76 30.63 7.76L30.63 7.76L30.63 7.76Q30.52 7.76 30.33 7.77L30.33 7.77L30.33 7.77Q30.13 7.77 30.03 7.79L30.03 7.79L30.03 7.79Q29.92 7.81 29.77 7.84L29.77 7.84L29.77 7.84Q29.61 7.87 29.53 7.92L29.53 7.92L29.53 7.92Q29.44 7.96 29.36 8.03L29.36 8.03L29.36 8.03Q29.27 8.09 29.23 8.19L29.23 8.19L29.23 8.19Q29.20 8.29 29.20 8.40L29.20 8.40L29.20 8.40Q29.20 8.78 29.16 9.57L29.16 9.57L29.16 9.57Q29.13 10.36 29.13 10.79L29.13 10.79L29.13 10.79Q29.13 12.07 29.20 13.05L29.20 13.05L29.20 13.05Q29.20 13.41 29.60 13.55L29.60 13.55L29.60 13.55Q30.00 13.68 30.95 13.68ZM30.93 14.62L30.93 14.62L30.93 14.62Q30.17 14.62 29.67 14.56L29.67 14.56L29.67 14.56Q29.16 14.50 28.80 14.29L28.80 14.29L28.80 14.29Q28.43 14.08 28.24 13.85L28.24 13.85L28.24 13.85Q28.05 13.61 27.94 13.10L27.94 13.10L27.94 13.10Q27.83 12.59 27.81 12.09L27.81 12.09L27.81 12.09Q27.78 11.59 27.78 10.71L27.78 10.71L27.78 10.71Q27.78 10.04 27.80 9.60L27.80 9.60L27.80 9.60Q27.82 9.15 27.88 8.73L27.88 8.73L27.88 8.73Q27.94 8.30 28.03 8.04L28.03 8.04L28.03 8.04Q28.12 7.77 28.30 7.54L28.30 7.54L28.30 7.54Q28.47 7.30 28.69 7.18L28.69 7.18L28.69 7.18Q28.91 7.05 29.25 6.96L29.25 6.96L29.25 6.96Q29.59 6.87 29.99 6.84L29.99 6.84L29.99 6.84Q30.39 6.81 30.94 6.81L30.94 6.81L30.94 6.81Q31.49 6.81 31.89 6.84L31.89 6.84L31.89 6.84Q32.29 6.87 32.63 6.96L32.63 6.96L32.63 6.96Q32.97 7.05 33.19 7.18L33.19 7.18L33.19 7.18Q33.41 7.30 33.58 7.54L33.58 7.54L33.58 7.54Q33.76 7.77 33.85 8.04L33.85 8.04L33.85 8.04Q33.94 8.30 34.00 8.73L34.00 8.73L34.00 8.73Q34.06 9.15 34.08 9.60L34.08 9.60L34.08 9.60Q34.10 10.04 34.10 10.71L34.10 10.71L34.10 10.71Q34.10 11.59 34.07 12.09L34.07 12.09L34.07 12.09Q34.05 12.59 33.94 13.10L33.94 13.10L33.94 13.10Q33.83 13.61 33.64 13.85L33.64 13.85L33.64 13.85Q33.44 14.09 33.08 14.29L33.08 14.29L33.08 14.29Q32.71 14.50 32.20 14.56L32.20 14.56L32.20 14.56Q31.70 14.62 30.93 14.62ZM37.40 4.25L37.40 14.52L36.05 14.52L36.05 4.36L37.40 4.25ZM42.50 13.68L42.50 13.68L42.50 13.68Q43.47 13.66 43.85 13.54L43.85 13.54L43.85 13.54Q44.23 13.41 44.23 13.05L44.23 13.05L44.23 13.05Q44.30 12.07 44.30 10.79L44.30 10.79L44.30 10.79Q44.30 10.36 44.27 9.57L44.27 9.57L44.27 9.57Q44.24 8.78 44.24 8.40L44.24 8.40L44.24 8.40Q44.24 8.29 44.20 8.19L44.20 8.19L44.20 8.19Q44.16 8.09 44.07 8.03L44.07 8.03L44.07 8.03Q43.99 7.96 43.90 7.92L43.90 7.92L43.90 7.92Q43.82 7.87 43.66 7.84L43.66 7.84L43.66 7.84Q43.51 7.81 43.40 7.79L43.40 7.79L43.40 7.79Q43.30 7.77 43.10 7.77L43.10 7.77L43.10 7.77Q42.91 7.76 42.80 7.76L42.80 7.76L42.80 7.76Q42.70 7.76 42.49 7.76L42.49 7.76L42.49 7.76Q42.29 7.76 42.18 7.76L42.18 7.76L42.18 7.76Q42.08 7.76 41.88 7.77L41.88 7.77L41.88 7.77Q41.69 7.77 41.58 7.79L41.58 7.79L41.58 7.79Q41.47 7.81 41.32 7.84L41.32 7.84L41.32 7.84Q41.17 7.87 41.08 7.92L41.08 7.92L41.08 7.92Q41.00 7.96 40.91 8.03L40.91 8.03L40.91 8.03Q40.82 8.09 40.79 8.19L40.79 8.19L40.79 8.19Q40.75 8.29 40.75 8.40L40.75 8.40L40.75 8.40Q40.75 8.78 40.71 9.57L40.71 9.57L40.71 9.57Q40.68 10.36 40.68 10.79L40.68 10.79L40.68 10.79Q40.68 12.07 40.76 13.05L40.76 13.05L40.76 13.05Q40.76 13.41 41.16 13.55L41.16 13.55L41.16 13.55Q41.56 13.68 42.50 13.68ZM42.49 14.62L42.49 14.62L42.49 14.62Q41.73 14.62 41.22 14.56L41.22 14.56L41.22 14.56Q40.71 14.50 40.35 14.29L40.35 14.29L40.35 14.29Q39.98 14.08 39.79 13.85L39.79 13.85L39.79 13.85Q39.60 13.61 39.49 13.10L39.49 13.10L39.49 13.10Q39.38 12.59 39.36 12.09L39.36 12.09L39.36 12.09Q39.33 11.59 39.33 10.71L39.33 10.71L39.33 10.71Q39.33 10.04 39.35 9.60L39.35 9.60L39.35 9.60Q39.37 9.15 39.43 8.73L39.43 8.73L39.43 8.73Q39.49 8.30 39.58 8.04L39.58 8.04L39.58 8.04Q39.68 7.77 39.85 7.54L39.85 7.54L39.85 7.54Q40.02 7.30 40.24 7.18L40.24 7.18L40.24 7.18Q40.46 7.05 40.80 6.96L40.80 6.96L40.80 6.96Q41.14 6.87 41.54 6.84L41.54 6.84L41.54 6.84Q41.94 6.81 42.49 6.81L42.49 6.81L42.49 6.81Q43.05 6.81 43.45 6.84L43.45 6.84L43.45 6.84Q43.85 6.87 44.18 6.96L44.18 6.96L44.18 6.96Q44.52 7.05 44.74 7.18L44.74 7.18L44.74 7.18Q44.96 7.30 45.13 7.54L45.13 7.54L45.13 7.54Q45.31 7.77 45.40 8.04L45.40 8.04L45.40 8.04Q45.49 8.30 45.55 8.73L45.55 8.73L45.55 8.73Q45.62 9.15 45.63 9.60L45.63 9.60L45.63 9.60Q45.65 10.04 45.65 10.71L45.65 10.71L45.65 10.71Q45.65 11.59 45.63 12.09L45.63 12.09L45.63 12.09Q45.60 12.59 45.49 13.10L45.49 13.10L45.49 13.10Q45.38 13.61 45.19 13.85L45.19 13.85L45.19 13.85Q44.99 14.09 44.63 14.29L44.63 14.29L44.63 14.29Q44.26 14.50 43.76 14.56L43.76 14.56L43.76 14.56Q43.25 14.62 42.49 14.62ZM51.84 9.43L54.95 9.43L54.95 13.79L54.95 13.79Q53.98 14.68 51.02 14.68L51.02 14.68L51.02 14.68Q50.44 14.68 49.99 14.64L49.99 14.64L49.99 14.64Q49.55 14.59 49.19 14.51L49.19 14.51L49.19 14.51Q48.82 14.44 48.56 14.26L48.56 14.26L48.56 14.26Q48.30 14.08 48.10 13.89L48.10 13.89L48.10 13.89Q47.91 13.71 47.78 13.35L47.78 13.35L47.78 13.35Q47.66 13.00 47.58 12.67L47.58 12.67L47.58 12.67Q47.50 12.35 47.47 11.79L47.47 11.79L47.47 11.79Q47.43 11.24 47.41 10.73L47.41 10.73L47.41 10.73Q47.40 10.23 47.40 9.43L47.40 9.43L47.40 9.43Q47.40 8.76 47.41 8.28L47.41 8.28L47.41 8.28Q47.42 7.80 47.46 7.30L47.46 7.30L47.46 7.30Q47.50 6.80 47.56 6.47L47.56 6.47L47.56 6.47Q47.63 6.14 47.74 5.80L47.74 5.80L47.74 5.80Q47.85 5.46 48.00 5.25L48.00 5.25L48.00 5.25Q48.15 5.04 48.38 4.84L48.38 4.84L48.38 4.84Q48.60 4.63 48.88 4.53L48.88 4.53L48.88 4.53Q49.16 4.42 49.53 4.33L49.53 4.33L49.53 4.33Q49.90 4.24 50.33 4.21L50.33 4.21L50.33 4.21Q50.77 4.18 51.32 4.18L51.32 4.18L51.32 4.18Q51.36 4.18 51.43 4.18L51.43 4.18L51.43 4.18Q51.91 4.18 52.15 4.18L52.15 4.18L52.15 4.18Q52.40 4.19 52.82 4.23L52.82 4.23L52.82 4.23Q53.24 4.28 53.46 4.37L53.46 4.37L53.46 4.37Q53.69 4.46 53.98 4.65L53.98 4.65L53.98 4.65Q54.28 4.83 54.42 5.09L54.42 5.09L54.42 5.09Q54.56 5.35 54.67 5.76L54.67 5.76L54.67 5.76Q54.78 6.16 54.78 6.69L54.78 6.69L54.78 6.69Q54.78 6.81 54.77 7.03L54.77 7.03L53.55 7.26L53.47 5.91L53.47 5.91Q53.46 5.48 52.97 5.35L52.97 5.35L52.97 5.35Q52.49 5.22 51.13 5.22L51.13 5.22L51.13 5.22Q50.21 5.22 49.74 5.34L49.74 5.34L49.74 5.34Q49.27 5.45 49.08 5.68L49.08 5.68L49.08 5.68Q48.90 5.91 48.86 6.37L48.86 6.37L48.86 6.37Q48.79 7.77 48.79 9.24L48.79 9.24L48.79 9.24Q48.79 10.72 48.86 12.11L48.86 12.11L48.86 12.11Q48.89 12.85 48.97 13.07L48.97 13.07L48.97 13.07Q49.10 13.41 49.57 13.52L49.57 13.52L49.57 13.52Q50.00 13.63 51.09 13.63L51.09 13.63L51.09 13.63Q53.43 13.63 53.68 13.32L53.68 13.32L53.68 13.32Q53.68 12.61 53.68 10.46L53.68 10.46L51.95 10.46L51.84 9.43ZM60.25 6.85L60.25 6.85L60.19 7.99L60.19 7.99Q59.93 7.96 59.70 7.96L59.70 7.96L59.70 7.96Q59.21 7.96 58.91 8.05L58.91 8.05L58.91 8.05Q58.61 8.15 58.46 8.38L58.46 8.38L58.46 8.38Q58.30 8.61 58.25 8.91L58.25 8.91L58.25 8.91Q58.20 9.21 58.20 9.71L58.20 9.71L58.20 9.71Q58.20 9.99 58.23 10.53L58.23 10.53L58.23 10.53Q58.25 11.07 58.25 11.30L58.25 11.30L58.25 14.52L56.90 14.52L56.90 7.02L58.13 7.02L58.26 7.86L58.26 7.86Q58.47 7.37 58.91 7.10L58.91 7.10L58.91 7.10Q59.34 6.83 59.94 6.83L59.94 6.83L59.94 6.83Q60.09 6.83 60.25 6.85ZM67.22 9.56L67.22 14.52L66.15 14.52L65.93 13.45L65.93 13.45Q65.73 14.15 65.19 14.39L65.19 14.39L65.19 14.39Q64.65 14.62 63.62 14.62L63.62 14.62L63.62 14.62Q62.94 14.62 62.50 14.49L62.50 14.49L62.50 14.49Q62.06 14.36 61.80 14.04L61.80 14.04L61.80 14.04Q61.54 13.73 61.44 13.27L61.44 13.27L61.44 13.27Q61.35 12.82 61.35 12.10L61.35 12.10L61.35 12.10Q61.35 11.78 61.46 11.53L61.46 11.53L61.46 11.53Q61.57 11.27 61.77 11.09L61.77 11.09L61.77 11.09Q61.96 10.92 62.29 10.79L62.29 10.79L62.29 10.79Q62.61 10.66 62.96 10.58L62.96 10.58L62.96 10.58Q63.31 10.51 63.80 10.46L63.80 10.46L63.80 10.46Q64.30 10.42 64.77 10.40L64.77 10.40L64.77 10.40Q65.24 10.39 65.87 10.39L65.87 10.39L65.87 8.36L65.87 8.36Q65.87 8.01 65.54 7.88L65.54 7.88L65.54 7.88Q65.21 7.75 64.37 7.75L64.37 7.75L64.37 7.75Q63.79 7.75 63.49 7.77L63.49 7.77L63.49 7.77Q63.20 7.80 63.04 7.93L63.04 7.93L63.04 7.93Q62.89 8.07 62.87 8.20L62.87 8.20L62.87 8.20Q62.84 8.33 62.84 8.68L62.84 8.68L62.84 8.68Q62.83 8.81 62.83 8.89L62.83 8.89L61.78 8.85L61.78 8.85Q61.77 8.74 61.77 8.52L61.77 8.52L61.77 8.52Q61.77 8.07 61.90 7.75L61.90 7.75L61.90 7.75Q62.04 7.43 62.25 7.25L62.25 7.25L62.25 7.25Q62.46 7.07 62.83 6.97L62.83 6.97L62.83 6.97Q63.20 6.86 63.56 6.84L63.56 6.84L63.56 6.84Q63.92 6.81 64.46 6.81L64.46 6.81L64.46 6.81Q65.28 6.81 65.80 6.94L65.80 6.94L65.80 6.94Q66.31 7.06 66.64 7.39L66.64 7.39L66.64 7.39Q66.96 7.72 67.09 8.23L67.09 8.23L67.09 8.23Q67.22 8.74 67.22 9.56L67.22 9.56ZM65.87 12.37L65.87 12.37L65.87 11.20L65.87 11.20Q64.52 11.20 63.80 11.31L63.80 11.31L63.80 11.31Q63.08 11.41 62.83 11.59L62.83 11.59L62.83 11.59Q62.59 11.77 62.59 12.10L62.59 12.10L62.59 12.10Q62.59 12.11 62.59 12.14L62.59 12.14L62.59 12.14Q62.59 13.18 62.76 13.43L62.76 13.43L62.76 13.43Q62.93 13.69 63.81 13.69L63.81 13.69L63.81 13.69Q64.55 13.69 65.02 13.51L65.02 13.51L65.02 13.51Q65.48 13.33 65.66 13.05L65.66 13.05L65.66 13.05Q65.84 12.78 65.87 12.37ZM75.22 10.36L75.22 14.52L73.88 14.52L73.88 9.98L73.88 9.98Q73.88 9.54 73.87 9.28L73.87 9.28L73.87 9.28Q73.87 9.02 73.85 8.75L73.85 8.75L73.85 8.75Q73.82 8.48 73.79 8.35L73.79 8.35L73.79 8.35Q73.77 8.22 73.69 8.08L73.69 8.08L73.69 8.08Q73.62 7.95 73.55 7.90L73.55 7.90L73.55 7.90Q73.47 7.85 73.33 7.81L73.33 7.81L73.33 7.81Q73.19 7.77 73.04 7.76L73.04 7.76L73.04 7.76Q72.90 7.75 72.66 7.75L72.66 7.75L72.66 7.75Q72.14 7.75 71.77 7.81L71.77 7.81L71.77 7.81Q71.41 7.87 71.18 7.97L71.18 7.97L71.18 7.97Q70.94 8.07 70.82 8.26L70.82 8.26L70.82 8.26Q70.69 8.44 70.64 8.66L70.64 8.66L70.64 8.66Q70.59 8.87 70.59 9.19L70.59 9.19L70.59 9.19Q70.59 9.37 70.62 9.81L70.62 9.81L70.62 9.81Q70.64 10.25 70.64 10.52L70.64 10.52L70.64 14.52L69.29 14.52L69.29 7.02L70.52 7.02L70.65 7.86L70.65 7.86Q70.83 7.30 71.44 7.05L71.44 7.05L71.44 7.05Q72.04 6.81 72.88 6.81L72.88 6.81L72.88 6.81Q73.28 6.81 73.59 6.86L73.59 6.86L73.59 6.86Q73.90 6.90 74.14 7.02L74.14 7.02L74.14 7.02Q74.38 7.13 74.55 7.27L74.55 7.27L74.55 7.27Q74.72 7.42 74.84 7.65L74.84 7.65L74.84 7.65Q74.96 7.89 75.04 8.13L75.04 8.13L75.04 8.13Q75.11 8.38 75.15 8.75L75.15 8.75L75.15 8.75Q75.20 9.12 75.21 9.48L75.21 9.48L75.21 9.48Q75.22 9.85 75.22 10.36L75.22 10.36ZM83.25 4.03L83.25 14.52L82.02 14.52L81.89 13.58L81.89 13.58Q81.48 14.62 79.71 14.62L79.71 14.62L79.71 14.62Q79.24 14.62 78.87 14.56L78.87 14.56L78.87 14.56Q78.50 14.50 78.23 14.35L78.23 14.35L78.23 14.35Q77.96 14.20 77.77 14.04L77.77 14.04L77.77 14.04Q77.57 13.88 77.45 13.57L77.45 13.57L77.45 13.57Q77.32 13.27 77.25 13.02L77.25 13.02L77.25 13.02Q77.18 12.77 77.14 12.33L77.14 12.33L77.14 12.33Q77.11 11.88 77.10 11.55L77.10 11.55L77.10 11.55Q77.10 11.22 77.10 10.65L77.10 10.65L77.10 10.65Q77.10 10.10 77.11 9.69L77.11 9.69L77.11 9.69Q77.13 9.29 77.18 8.89L77.18 8.89L77.18 8.89Q77.23 8.50 77.32 8.23L77.32 8.23L77.32 8.23Q77.40 7.96 77.55 7.70L77.55 7.70L77.55 7.70Q77.69 7.45 77.89 7.30L77.89 7.30L77.89 7.30Q78.09 7.14 78.37 7.02L78.37 7.02L78.37 7.02Q78.65 6.90 79.02 6.86L79.02 6.86L79.02 6.86Q79.38 6.81 79.84 6.81L79.84 6.81L79.84 6.81Q80.72 6.81 81.21 7.04L81.21 7.04L81.21 7.04Q81.70 7.28 81.91 7.79L81.91 7.79L81.91 4.14L83.25 4.03ZM81.91 12.78L81.91 12.78L81.91 8.79L81.91 8.79Q81.91 8.20 81.54 7.97L81.54 7.97L81.54 7.97Q81.17 7.75 80.15 7.75L80.15 7.75L80.15 7.75Q79.36 7.75 78.98 7.87L78.98 7.87L78.98 7.87Q78.66 7.96 78.55 8.43L78.55 8.43L78.55 8.43Q78.44 8.90 78.44 9.69L78.44 9.69L78.44 9.69Q78.44 10.85 78.48 12.93L78.48 12.93L78.48 12.93Q78.52 13.38 78.85 13.53L78.85 13.53L78.85 13.53Q79.18 13.69 80.15 13.69L80.15 13.69L80.15 13.69Q81.11 13.69 81.49 13.49L81.49 13.49L81.49 13.49Q81.87 13.30 81.91 12.78ZM91.14 10.66L91.14 10.66L91.14 10.66Q90.32 10.75 90.12 10.76L90.12 10.76L86.39 10.76L86.39 10.76Q86.40 11.75 86.45 12.93L86.45 12.93L86.45 12.93Q86.48 13.39 86.84 13.54L86.84 13.54L86.84 13.54Q87.20 13.69 88.24 13.69L88.24 13.69L88.24 13.69Q88.63 13.69 88.91 13.65L88.91 13.65L88.91 13.65Q89.19 13.62 89.36 13.55L89.36 13.55L89.36 13.55Q89.54 13.47 89.64 13.40L89.64 13.40L89.64 13.40Q89.74 13.32 89.78 13.17L89.78 13.17L89.78 13.17Q89.83 13.02 89.84 12.91L89.84 12.91L89.84 12.91Q89.86 12.80 89.87 12.59L89.87 12.59L89.87 12.59Q89.89 12.37 89.91 12.24L89.91 12.24L90.95 12.43L90.95 12.43Q90.94 12.91 90.88 13.24L90.88 13.24L90.88 13.24Q90.83 13.57 90.70 13.82L90.70 13.82L90.70 13.82Q90.57 14.08 90.39 14.22L90.39 14.22L90.39 14.22Q90.21 14.37 89.91 14.46L89.91 14.46L89.91 14.46Q89.61 14.56 89.25 14.59L89.25 14.59L89.25 14.59Q88.89 14.62 88.35 14.62L88.35 14.62L88.35 14.62Q87.67 14.62 87.17 14.54L87.17 14.54L87.17 14.54Q86.66 14.46 86.30 14.35L86.30 14.35L86.30 14.35Q85.94 14.23 85.71 13.97L85.71 13.97L85.71 13.97Q85.48 13.71 85.34 13.47L85.34 13.47L85.34 13.47Q85.21 13.23 85.15 12.76L85.15 12.76L85.15 12.76Q85.09 12.30 85.07 11.92L85.07 11.92L85.07 11.92Q85.05 11.54 85.05 10.87L85.05 10.87L85.05 10.87Q85.05 9.93 85.08 9.40L85.08 9.40L85.08 9.40Q85.10 8.87 85.21 8.34L85.21 8.34L85.21 8.34Q85.32 7.81 85.50 7.57L85.50 7.57L85.50 7.57Q85.69 7.33 86.05 7.13L86.05 7.13L86.05 7.13Q86.41 6.92 86.91 6.87L86.91 6.87L86.91 6.87Q87.40 6.81 88.16 6.81L88.16 6.81L88.16 6.81Q88.68 6.81 89.07 6.84L89.07 6.84L89.07 6.84Q89.45 6.87 89.77 6.97L89.77 6.97L89.77 6.97Q90.09 7.06 90.30 7.18L90.30 7.18L90.30 7.18Q90.51 7.31 90.67 7.55L90.67 7.55L90.67 7.55Q90.83 7.79 90.91 8.04L90.91 8.04L90.91 8.04Q91 8.30 91.05 8.72L91.05 8.72L91.05 8.72Q91.11 9.15 91.12 9.58L91.12 9.58L91.12 9.58Q91.14 10.01 91.14 10.66ZM86.40 10.04L86.40 10.04L89.79 10.04L89.79 10.04Q89.78 9.17 89.72 8.44L89.72 8.44L89.72 8.44Q89.69 8.03 89.36 7.89L89.36 7.89L89.36 7.89Q89.03 7.75 88.15 7.75L88.15 7.75L88.15 7.75Q87.17 7.75 86.91 7.85L86.91 7.85L86.91 7.85Q86.80 7.89 86.71 7.97L86.71 7.97L86.71 7.97Q86.63 8.06 86.57 8.22L86.57 8.22L86.57 8.22Q86.52 8.37 86.48 8.51L86.48 8.51L86.48 8.51Q86.45 8.65 86.44 8.89L86.44 8.89L86.44 8.89Q86.42 9.13 86.41 9.27L86.41 9.27L86.41 9.27Q86.41 9.40 86.40 9.67L86.40 9.67L86.40 9.67Q86.40 9.95 86.40 10.04Z"></path></g><defs data-v-423bf9ae=""><linearGradient data-v-423bf9ae="" gradientTransform="rotate(25)" id="22cbdfdc-c742-4b6f-9d0e-cbbe764317b8" x1="0%" y1="0%" x2="100%" y2="0%"><stop data-v-423bf9ae="" offset="0%" style="stop-color: rgb(148, 80, 105); stop-opacity: 1;"></stop><stop data-v-423bf9ae="" offset="100%" style="stop-color: rgb(134, 200, 102); stop-opacity: 1;"></stop></linearGradient></defs><g data-v-423bf9ae="" id="38498056-7ed2-4c7b-9d12-17f50c431e80" transform="matrix(3.1025924503236535,0,0,3.1025924503236535,0.3585207948215441,-8.290956827928717)" stroke="none" fill="url(#22cbdfdc-c742-4b6f-9d0e-cbbe764317b8)"><path d="M16 26.219l7.496-12.954H8.504zM7.496 19.046L0 32h14.992zM17.008 32H32l-7.496-12.954zM3.587 2.992L0 9.191h7.174zM8.275 9.191h7.174l-3.587-6.199zM20.138 2.992l-3.587 6.199h7.174zM24.826 9.191H32l-3.587-6.199z"></path></g><!----></svg>